<?xml version="1.0" encoding="UTF-8"?>
<svg width="128px" height="128px" viewBox="0 0 128 128" version="1.1" xmlns="http://www.w3.org/2000/svg" xmlns:xlink="http://www.w3.org/1999/xlink">
    <title>编组 22</title>
    <g id="页面-1" stroke="none" stroke-width="1" fill="none" fill-rule="evenodd">
        <g id="黑色_中文" transform="translate(-575.000000, -800.000000)" fill="#FFFFFF">
            <g id="编组-15" transform="translate(213.000000, 575.000000)">
                <g id="编组-22" transform="translate(362.000000, 225.000000)">
                    <circle id="椭圆形" opacity="0.300000012" cx="64" cy="64" r="64"></circle>
                    <path d="M79.3211878,46.0623405 L102.604749,79.6674805 C105.121026,83.2992201 104.216764,88.2831719 100.585025,90.7994486 C99.2466355,91.7267612 97.6571518,92.2236025 96.0289029,92.2236025 L49.4617803,92.2236025 C45.0435023,92.2236025 41.4617803,88.6418805 41.4617803,84.2236025 C41.4617803,82.5953535 41.9586216,81.0058698 42.8859342,79.6674805 L66.1694955,46.0623405 C68.6857722,42.430601 73.669724,41.5263397 77.3014636,44.0426164 C78.0904141,44.5892463 78.7745578,45.2733901 79.3211878,46.0623405 Z" id="三角形" opacity="0.800000012" transform="translate(72.745342, 64.397516) rotate(90.000000) translate(-72.745342, -64.397516) "></path>
                </g>
            </g>
        </g>
    </g>
</svg>