<?xml version="1.0" encoding="UTF-8"?>
<svg width="20px" height="20px" viewBox="0 0 20 20" version="1.1" xmlns="http://www.w3.org/2000/svg" xmlns:xlink="http://www.w3.org/1999/xlink">
    <title>close</title>
    <g id="页面-1" stroke="none" stroke-width="1" fill="none" fill-rule="evenodd">
        <g id="弹窗" transform="translate(-920.000000, -202.000000)" fill-rule="nonzero">
            <g id="编组" transform="translate(320.000000, 182.000000)">
                <g id="close" transform="translate(600.000000, 20.000000)">
                    <rect id="矩形" fill="#000000" opacity="0" x="0" y="0" width="20" height="20"></rect>
                    <path d="M10.63375,9.75 L16.191875,4.191875 C16.4287326,3.9466382 16.4253452,3.55682201 16.1842616,3.31573839 C15.943178,3.07465477 15.5533618,3.07126737 15.308125,3.308125 L9.75,8.86625 L4.191875,3.308125 C3.9466382,3.07126737 3.55682201,3.07465477 3.31573839,3.31573839 C3.07465477,3.55682201 3.07126737,3.9466382 3.308125,4.191875 L8.86625,9.75 L3.308125,15.308125 C3.07126737,15.5533618 3.07465477,15.943178 3.31573839,16.1842616 C3.55682201,16.4253452 3.9466382,16.4287326 4.191875,16.191875 L9.75,10.63375 L15.308125,16.191875 C15.4250845,16.3095058 15.584119,16.3756468 15.75,16.3756468 C15.915881,16.3756468 16.0749155,16.3095058 16.191875,16.191875 C16.4358637,15.9478126 16.4358637,15.5521874 16.191875,15.308125 L10.63375,9.75 Z" id="路径" fill="#4A4A4A"></path>
                </g>
            </g>
        </g>
    </g>
</svg>