<?xml version="1.0" encoding="UTF-8"?>
<svg width="28px" height="28px" viewBox="0 0 28 28" version="1.1" xmlns="http://www.w3.org/2000/svg" xmlns:xlink="http://www.w3.org/1999/xlink">
    <title>编组 14</title>
    <g id="页面-1" stroke="none" stroke-width="1" fill="none" fill-rule="evenodd">
        <g id="黑色_中文" transform="translate(-493.000000, -5977.000000)" fill="#FFFFFF" fill-rule="nonzero">
            <g id="编组-14" transform="translate(493.000000, 5977.000000)">
                <rect id="矩形" fill-opacity="0.01" x="0" y="0" width="28" height="28"></rect>
                <path d="M4.97459024,10.9039586 C5.17404379,10.9039586 5.353552,10.8339307 5.51311485,10.6938747 C5.67267769,10.5538187 5.7684154,10.3817499 5.80032797,10.1776683 C5.83224054,9.97358677 5.76043726,9.771506 5.58491813,9.57142603 C5.28972686,9.20327888 5.05836073,8.78911333 4.89081974,8.3289294 C4.72327875,7.86874546 4.63950826,7.38255113 4.63950826,6.8703464 C4.63950826,6.0940361 4.82898914,5.385753 5.2079509,4.74549709 C5.58691266,4.10524117 6.09751377,3.59503724 6.73975423,3.2148853 C7.38199469,2.83473335 8.0940439,2.64465737 8.87590185,2.64465737 C9.63382538,2.64465737 10.3279238,2.82873095 10.958197,3.1968781 C11.5884703,3.56502525 12.0950823,4.06122358 12.4780331,4.6854731 C12.860984,5.30972261 13.0604375,6.00199932 13.0763938,6.76230321 L13.0763938,7.00239918 L13.0763938,7.00239918 C13.0923501,7.26650474 13.1761206,7.46258312 13.3277053,7.5906343 C13.47929,7.71868548 13.6587982,7.78271107 13.8662299,7.78271107 C14.0736616,7.78271107 14.261148,7.71668468 14.4286889,7.5846319 C14.5962299,7.45257912 14.6879786,7.27450794 14.7039349,7.05041837 L14.7039349,6.69027442 L14.7039349,6.69027442 C14.6720223,5.63385217 14.3907928,4.6774699 13.8602463,3.82112761 C13.3296998,2.96478533 12.6296178,2.28051182 11.7600003,1.76830709 C10.8903828,1.25610236 9.92901665,1 8.87590185,1 C8.07010947,1 7.31019141,1.15406158 6.59614767,1.46218474 C5.88210393,1.77030789 5.25781429,2.19247664 4.72327875,2.72869096 C4.18874321,3.26490529 3.7678962,3.887154 3.46073772,4.59543711 C3.15357924,5.30372021 3,6.06202331 3,6.8703464 C3,7.5506183 3.11169399,8.20487981 3.33508198,8.83313093 C3.55846997,9.46138204 3.86562845,10.0236068 4.25655742,10.5198051 C4.36027327,10.6558595 4.4739618,10.7538987 4.59762301,10.8139227 C4.72128422,10.8739466 4.84693996,10.9039586 4.97459024,10.9039586 Z M19.5745908,26.4021533 C21.1143722,25.8419294 22.3430062,25.0236023 23.2604925,23.9471721 C24.1779789,22.8707418 24.7344543,21.6062364 24.9299188,20.1536558 C25.1253833,18.7010752 24.911968,17.1264458 24.2896729,15.4297676 L23.4040991,12.9807888 C22.9573231,11.7402929 22.3210663,10.869945 21.4953285,10.3697451 C20.6695908,9.86954519 19.7501099,9.7955156 18.7368858,10.1476563 C18.4576508,9.7955156 18.1165852,9.56542363 17.7136891,9.45738044 C17.3107929,9.34933726 16.8859568,9.37934925 16.4391808,9.54741643 C16.1360114,9.65946121 15.8527874,9.81552359 15.5895087,10.0156036 C15.2863392,9.63945322 14.9193447,9.39135405 14.488525,9.27130607 C14.0577053,9.15125808 13.6069403,9.17526768 13.1362299,9.34333486 C12.9048637,9.42336685 12.6854648,9.53941323 12.4780331,9.69147401 L11.2693446,6.31812567 C11.0060659,5.61384417 10.5872134,5.12364824 10.0127871,4.84753787 C9.43836089,4.57142751 8.82005486,4.55342031 8.15786904,4.79351628 C7.49568322,5.03361225 7.0289619,5.44577699 6.75770505,6.03001051 C6.48644821,6.61424403 6.47847007,7.25850154 6.73377063,7.96278305 L9.88114779,16.6422523 C9.90508222,16.7062778 9.88912593,16.7462938 9.83327894,16.7623002 C9.80136637,16.7783066 9.76546473,16.7663018 9.72557401,16.7262858 L8.50491823,15.405758 C8.16983625,15.0696237 7.81081985,14.8495357 7.42786901,14.7454941 C7.04491818,14.6414525 6.66595642,14.6614605 6.29098373,14.8055181 C5.7404919,15.0055981 5.32363396,15.3477348 5.04040991,15.8319284 C4.75718586,16.3161219 4.72726782,16.8663418 4.95065581,17.4825881 C5.00650281,17.6586585 5.0902733,17.8407313 5.20196729,18.0288065 C5.31366129,18.2168816 5.43732249,18.3989544 5.57295091,18.5750248 L9.37852482,23.1968722 C10.8385249,24.9575759 12.4241807,26.1080358 14.1354922,26.6482517 C15.8468037,27.1884676 17.6598366,27.1064348 19.5745908,26.4021533 Z M14.7039349,25.0155991 C13.3157381,24.6514536 11.967432,23.6850673 10.6590167,22.1164403 L6.82950834,17.5426121 C6.72579249,17.4065578 6.64202199,17.2665018 6.57819685,17.1224442 C6.52234985,16.9463738 6.530328,16.7723042 6.60213128,16.6002355 C6.67393456,16.4281667 6.80956298,16.3021163 7.00901654,16.2220843 C7.31218595,16.1180427 7.60338815,16.2180827 7.88262313,16.5222043 L10.5513117,19.2472935 C10.7746997,19.4713831 10.988115,19.6034359 11.1915577,19.6434518 C11.3950003,19.6834678 11.5964484,19.671463 11.795902,19.6074375 C12.0352462,19.5194023 12.2007927,19.3613391 12.2925413,19.1332479 C12.38429,18.9051567 12.3822954,18.66306 12.2865577,18.4069576 L8.25360675,7.29051434 C8.18180347,7.08243117 8.18579254,6.88435199 8.26557396,6.69627682 C8.34535539,6.50820165 8.49295102,6.37814966 8.70836086,6.30612087 C8.90781442,6.23409208 9.0972953,6.24209528 9.27680351,6.33013047 C9.45631171,6.41816566 9.58595652,6.57022644 9.66573795,6.78631281 L12.5139348,14.6494557 C12.5857381,14.8495357 12.7193719,14.9915925 12.9148364,15.0756261 C13.1103009,15.1596597 13.3077599,15.1656621 13.5072135,15.0936333 C13.7066671,15.0136013 13.8522682,14.8815485 13.9440168,14.6974749 C14.0357654,14.5134013 14.0457381,14.3213246 13.9739348,14.1212446 L12.9567217,11.300117 C13.1083064,11.1480562 13.2918037,11.0320098 13.5072135,10.9519778 C14.041749,10.7599011 14.4127327,10.9479762 14.6201644,11.5162034 L15.5296726,14.0132014 C15.6014759,14.2292878 15.7371043,14.3753462 15.9365578,14.4513766 C16.1360114,14.5274069 16.3314759,14.5294077 16.5229513,14.457379 C16.7064486,14.3853502 16.8480606,14.2592998 16.9477874,14.0792278 C17.0475142,13.8991558 17.0574868,13.7010767 16.9777054,13.4849903 L16.2596726,11.5041986 C16.4192355,11.3521378 16.6067218,11.2360914 16.8221316,11.1560594 C17.3566672,10.9639826 17.7236617,11.1520578 17.9231153,11.7202849 L18.5334432,13.3889519 C18.6132246,13.5970351 18.748853,13.7410927 18.9403284,13.8211246 C19.1318039,13.9011566 19.3272684,13.9051582 19.5267219,13.8331294 C19.7181973,13.7611007 19.8618039,13.6330495 19.9575416,13.4489759 C20.0532793,13.2649023 20.0652465,13.0648223 19.9934432,12.848736 L19.5626236,11.7082801 C20.0253558,11.5482162 20.4561755,11.6402529 20.8550826,11.9843905 C21.2539897,12.328528 21.6010389,12.9007568 21.8962302,13.7010767 L22.6621319,15.825926 C23.1807111,17.2424922 23.3781701,18.5390104 23.2545089,19.7154806 C23.1308477,20.8919509 22.7119953,21.9083571 21.9979515,22.7646994 C21.2839078,23.6210417 20.2926236,24.277304 19.0240989,24.7334864 C17.5321863,25.2857071 16.0921316,25.3797447 14.7039349,25.0155991 Z" id="􀬁"></path>
            </g>
        </g>
    </g>
</svg>