<?xml version="1.0" encoding="UTF-8"?>
<svg width="28px" height="28px" viewBox="0 0 28 28" version="1.1" xmlns="http://www.w3.org/2000/svg" xmlns:xlink="http://www.w3.org/1999/xlink">
    <title>编组 11</title>
    <g id="页面-1" stroke="none" stroke-width="1" fill="none" fill-rule="evenodd">
        <g id="黑色_中文" transform="translate(-150.000000, -5850.000000)" fill-rule="nonzero">
            <g id="编组-11" transform="translate(150.000000, 5850.000000)">
                <rect id="矩形" x="0" y="0" width="28" height="28"></rect>
                <path d="M25.0740741,3 C26.1377336,3 27,3.8581209 27,4.91666667 L27,4.91666667 L27,24.0833333 C27,25.1418791 26.1377336,26 25.0740741,26 L25.0740741,26 L21.2222222,26 C20.1585627,26 19.2962963,25.1418791 19.2962963,24.0833333 L19.2962963,24.0833333 L19.2962963,4.91666667 C19.2962963,3.8581209 20.1585627,3 21.2222222,3 L21.2222222,3 Z M6.77777778,13.5416667 C7.8414373,13.5416667 8.7037037,14.3997876 8.7037037,15.4583333 L8.7037037,15.4583333 L8.7037037,24.0833333 C8.7037037,25.1418791 7.8414373,26 6.77777778,26 L6.77777778,26 L2.92592593,26 C1.86226641,26 1,25.1418791 1,24.0833333 L1,24.0833333 L1,15.4583333 C1,14.3997876 1.86226641,13.5416667 2.92592593,13.5416667 L2.92592593,13.5416667 Z M15.9259259,7.79166667 C16.9895854,7.79166667 17.8518519,8.64978756 17.8518519,9.70833333 L17.8518519,9.70833333 L17.8518519,24.0833333 C17.8518519,25.1418791 16.9895854,26 15.9259259,26 L15.9259259,26 L12.0740741,26 C11.0104146,26 10.1481481,25.1418791 10.1481481,24.0833333 L10.1481481,24.0833333 L10.1481481,9.70833333 C10.1481481,8.64978756 11.0104146,7.79166667 12.0740741,7.79166667 L12.0740741,7.79166667 Z M6.77777778,15.4583333 L2.92592593,15.4583333 L2.92592593,24.0833333 L6.77777778,24.0833333 L6.77777778,15.4583333 Z M15.9259259,9.70833333 L12.0740741,9.70833333 L12.0740741,24.0833333 L15.9259259,24.0833333 L15.9259259,9.70833333 Z M25.0740741,4.91666667 L21.2222222,4.91666667 L21.2222222,24.0833333 L25.0740741,24.0833333 L25.0740741,4.91666667 Z" id="形状结合" fill="#FFFFFF"></path>
            </g>
        </g>
    </g>
</svg>