<?xml version="1.0" encoding="UTF-8"?>
<svg width="28px" height="28px" viewBox="0 0 28 28" version="1.1" xmlns="http://www.w3.org/2000/svg" xmlns:xlink="http://www.w3.org/1999/xlink">
    <title>编组 17</title>
    <g id="页面-1" stroke="none" stroke-width="1" fill="none" fill-rule="evenodd">
        <g id="黑色_中文" transform="translate(-150.000000, -6103.000000)" fill-rule="nonzero">
            <g id="编组-42" transform="translate(150.000000, 5850.000000)">
                <g id="编组-17" transform="translate(0.000000, 253.000000)">
                    <rect id="矩形" x="0" y="0" width="28" height="28"></rect>
                    <path d="M23,3 C25.209139,3 27,4.790861 27,7 L27,7 L27,21 C27,23.209139 25.209139,25 23,25 L23,25 L5,25 C2.790861,25 1,23.209139 1,21 L1,21 L1,7 C1,4.790861 2.790861,3 5,3 L5,3 Z M23,5 L5,5 C3.8954305,5 3,5.8954305 3,7 L3,7 L3,21 C3,22.1045695 3.8954305,23 5,23 L5,23 L23,23 C24.1045695,23 25,22.1045695 25,21 L25,21 L25,7 C25,5.8954305 24.1045695,5 23,5 L23,5 Z M17.8210324,13.5 C18.3733171,13.5 18.8210324,13.9477153 18.8210324,14.5 C18.8210324,15.0128358 18.4349922,15.4355072 17.9376535,15.4932723 L17.8210324,15.5 L13.7969667,15.5 C13.244682,15.5 12.7969667,15.0522847 12.7969667,14.5 C12.7969667,13.9871642 13.1830069,13.5644928 13.6803456,13.5067277 L13.7969667,13.5 L17.8210324,13.5 Z M7.69633505,8.60006031 L7.79761966,8.65825978 L11.2417753,10.9106709 C11.8076151,11.2807191 11.8429801,12.0811517 11.3478703,12.504998 L11.2417753,12.584507 L7.79761966,14.8369181 C7.33540257,15.1391991 6.71565441,15.0095453 6.4133734,14.5473282 C6.13268388,14.1181266 6.22442795,13.5530947 6.60904321,13.2325425 L6.70296326,13.1630819 L8.867,11.747 L6.70296326,10.3320959 C6.27376168,10.0514064 6.1313111,9.49698245 6.35517392,9.04913424 L6.4133734,8.94784964 C6.69406291,8.51864806 7.24848685,8.37619748 7.69633505,8.60006031 Z" id="形状结合" fill="#FFFFFF"></path>
                </g>
            </g>
        </g>
    </g>
</svg>