<?xml version="1.0" encoding="UTF-8"?>
<svg width="28px" height="28px" viewBox="0 0 28 28" version="1.1" xmlns="http://www.w3.org/2000/svg" xmlns:xlink="http://www.w3.org/1999/xlink">
    <title>编组 40</title>
    <g id="页面-1" stroke="none" stroke-width="1" fill="none" fill-rule="evenodd">
        <g id="黑色_中文" transform="translate(-150.000000, -5977.000000)" fill="#FFFFFF" fill-rule="nonzero">
            <g id="编组-40" transform="translate(150.000000, 5977.000000)">
                <g id="编组-12" fill-opacity="0.01">
                    <rect id="矩形" x="0" y="0" width="28" height="28"></rect>
                </g>
                <path d="M23.4651163,24 C24.6434109,24 25.5271318,23.7130369 26.1162791,23.1391106 C26.7054264,22.5651843 27,21.7118966 27,20.5792474 L27,7.43215507 C27,6.29950589 26.7054264,5.44431775 26.1162791,4.86659065 C25.5271318,4.28886355 24.6434109,4 23.4651163,4 L4.53488372,4 C3.37209302,4 2.49224806,4.28696313 1.89534884,4.8608894 C1.29844961,5.43481566 1,6.29190422 1,7.43215507 L1,20.5792474 C1,21.7194983 1.29844961,22.5746864 1.89534884,23.1448119 C2.49224806,23.7149373 3.37209302,24 4.53488372,24 L23.4651163,24 Z M4.6627907,7.75142531 C4.38372093,7.75142531 4.14728682,7.65070315 3.95348837,7.44925884 C3.75968992,7.24781452 3.6627907,7.01786393 3.6627907,6.75940707 C3.6627907,6.50095021 3.75968992,6.27290004 3.95348837,6.07525656 C4.14728682,5.87761307 4.38372093,5.77879133 4.6627907,5.77879133 C4.93410853,5.77879133 5.16860465,5.87761307 5.36627907,6.07525656 C5.56395349,6.27290004 5.6627907,6.50095021 5.6627907,6.75940707 C5.6627907,7.01786393 5.56395349,7.24781452 5.36627907,7.44925884 C5.16860465,7.65070315 4.93410853,7.75142531 4.6627907,7.75142531 Z M7.86046512,7.75142531 C7.58914729,7.75142531 7.35271318,7.65260357 7.15116279,7.45496009 C6.9496124,7.25731661 6.84883721,7.0254656 6.84883721,6.75940707 C6.84883721,6.50095021 6.9496124,6.27290004 7.15116279,6.07525656 C7.35271318,5.87761307 7.58914729,5.77879133 7.86046512,5.77879133 C8.13953488,5.77879133 8.37596899,5.87761307 8.56976744,6.07525656 C8.76356589,6.27290004 8.86046512,6.50095021 8.86046512,6.75940707 C8.86046512,7.0254656 8.76356589,7.25731661 8.56976744,7.45496009 C8.37596899,7.65260357 8.13953488,7.75142531 7.86046512,7.75142531 Z M11.0581395,7.74002281 C10.7790698,7.74002281 10.5426357,7.64310148 10.3488372,7.44925884 C10.1550388,7.25541619 10.0581395,7.0254656 10.0581395,6.75940707 C10.0581395,6.50095021 10.1550388,6.27290004 10.3488372,6.07525656 C10.5426357,5.87761307 10.7790698,5.77879133 11.0581395,5.77879133 C11.3372093,5.77879133 11.5755814,5.87761307 11.7732558,6.07525656 C11.9709302,6.27290004 12.0697674,6.50095021 12.0697674,6.75940707 C12.0697674,7.0254656 11.9709302,7.25541619 11.7732558,7.44925884 C11.5755814,7.64310148 11.3372093,7.74002281 11.0581395,7.74002281 Z M23.3837209,22.0729761 L4.61627907,22.0729761 C4.08914729,22.0729761 3.68604651,21.936146 3.40697674,21.6624857 C3.12790698,21.3888255 2.98837209,20.9821361 2.98837209,20.4424173 L2.98837209,9.53021665 L25.0348837,9.53021665 L25.0348837,20.4424173 C25.0348837,20.9821361 24.8914729,21.3888255 24.6046512,21.6624857 C24.3178295,21.936146 23.9108527,22.0729761 23.3837209,22.0729761 Z M21.755814,19.2109464 C22.2131783,19.2109464 22.5833333,19.0741163 22.8662791,18.8004561 C23.1492248,18.5267959 23.2906977,18.1619156 23.2906977,17.7058153 C23.2906977,17.2649183 23.1492248,16.9114405 22.8662791,16.645382 C22.5833333,16.3793235 22.2131783,16.2462942 21.755814,16.2462942 L21.2325581,16.2462942 L21.2325581,15.1288483 L21.755814,15.1288483 C22.2131783,15.1288483 22.5833333,14.9939187 22.8662791,14.7240593 C23.1492248,14.4541999 23.2906977,14.1026226 23.2906977,13.6693273 C23.2906977,13.2208286 23.1492248,12.8578487 22.8662791,12.5803877 C22.5833333,12.3029266 22.2131783,12.1641961 21.755814,12.1641961 C21.3062016,12.1641961 20.9437984,12.3029266 20.6686047,12.5803877 C20.3934109,12.8578487 20.255814,13.2208286 20.255814,13.6693273 L20.255814,14.1824401 L19.1627907,14.1824401 L19.1627907,13.6693273 C19.1627907,13.2208286 19.0251938,12.8578487 18.75,12.5803877 C18.4748062,12.3029266 18.1124031,12.1641961 17.6627907,12.1641961 C17.2054264,12.1641961 16.8372093,12.3029266 16.5581395,12.5803877 C16.2790698,12.8578487 16.1395349,13.2208286 16.1395349,13.6693273 C16.1395349,14.1026226 16.2790698,14.4541999 16.5581395,14.7240593 C16.8372093,14.9939187 17.2054264,15.1288483 17.6627907,15.1288483 L18.1744186,15.1288483 L18.1744186,16.2462942 L17.6627907,16.2462942 C17.2054264,16.2462942 16.8372093,16.3793235 16.5581395,16.645382 C16.2790698,16.9114405 16.1395349,17.2649183 16.1395349,17.7058153 C16.1395349,18.1619156 16.2790698,18.5267959 16.5581395,18.8004561 C16.8372093,19.0741163 17.2054264,19.2109464 17.6627907,19.2109464 C18.1124031,19.2109464 18.4748062,19.0741163 18.75,18.8004561 C19.0251938,18.5267959 19.1627907,18.1619156 19.1627907,17.7058153 L19.1627907,17.1927024 L20.255814,17.1927024 L20.255814,17.7058153 C20.255814,18.1619156 20.3934109,18.5267959 20.6686047,18.8004561 C20.9437984,19.0741163 21.3062016,19.2109464 21.755814,19.2109464 Z M12.6976744,13.7263398 C12.8837209,13.7263398 13.0426357,13.6598252 13.1744186,13.5267959 C13.3062016,13.3937666 13.372093,13.2322311 13.372093,13.0421893 C13.372093,12.8597491 13.3062016,12.7039149 13.1744186,12.5746864 C13.0426357,12.445458 12.8837209,12.3808438 12.6976744,12.3808438 L6.06976744,12.3808438 C5.88372093,12.3808438 5.7248062,12.445458 5.59302326,12.5746864 C5.46124031,12.7039149 5.39534884,12.8597491 5.39534884,13.0421893 C5.39534884,13.2322311 5.46124031,13.3937666 5.59302326,13.5267959 C5.7248062,13.6598252 5.88372093,13.7263398 6.06976744,13.7263398 L12.6976744,13.7263398 Z M21.755814,14.1824401 L21.2325581,14.1824401 L21.2325581,13.6693273 C21.2325581,13.5096921 21.2810078,13.3804637 21.377907,13.281642 C21.4748062,13.1828202 21.6007752,13.1334094 21.755814,13.1334094 C21.9263566,13.1334094 22.0600775,13.1828202 22.1569767,13.281642 C22.253876,13.3804637 22.3023256,13.5096921 22.3023256,13.6693273 C22.3023256,13.8289624 22.253876,13.95439 22.1569767,14.04561 C22.0600775,14.1368301 21.9263566,14.1824401 21.755814,14.1824401 Z M18.1744186,14.1824401 L17.6627907,14.1824401 C17.4922481,14.1824401 17.3585271,14.1368301 17.2616279,14.04561 C17.1647287,13.95439 17.1162791,13.8289624 17.1162791,13.6693273 C17.1162791,13.5096921 17.1647287,13.3804637 17.2616279,13.281642 C17.3585271,13.1828202 17.4922481,13.1334094 17.6627907,13.1334094 C17.8178295,13.1334094 17.9418605,13.1828202 18.0348837,13.281642 C18.127907,13.3804637 18.1744186,13.5096921 18.1744186,13.6693273 L18.1744186,14.1824401 Z M12.6976744,16.3717218 C12.8837209,16.3717218 13.0426357,16.3052071 13.1744186,16.1721779 C13.3062016,16.0391486 13.372093,15.8776131 13.372093,15.6875713 C13.372093,15.5051311 13.3062016,15.3492968 13.1744186,15.2200684 C13.0426357,15.09084 12.8837209,15.0262258 12.6976744,15.0262258 L6.06976744,15.0262258 C5.88372093,15.0262258 5.7248062,15.09084 5.59302326,15.2200684 C5.46124031,15.3492968 5.39534884,15.5051311 5.39534884,15.6875713 C5.39534884,15.8776131 5.46124031,16.0391486 5.59302326,16.1721779 C5.7248062,16.3052071 5.88372093,16.3717218 6.06976744,16.3717218 L12.6976744,16.3717218 Z M20.255814,16.2576967 L19.1627907,16.2576967 L19.1627907,15.1288483 L20.255814,15.1288483 L20.255814,16.2576967 Z M21.755814,18.2417332 C21.6007752,18.2417332 21.4748062,18.1923223 21.377907,18.0935006 C21.2810078,17.9946788 21.2325581,17.8654504 21.2325581,17.7058153 L21.2325581,17.1812999 L21.755814,17.1812999 C21.9263566,17.1812999 22.0600775,17.2288103 22.1569767,17.3238312 C22.253876,17.4188521 22.3023256,17.5461802 22.3023256,17.7058153 C22.3023256,17.8654504 22.253876,17.9946788 22.1569767,18.0935006 C22.0600775,18.1923223 21.9263566,18.2417332 21.755814,18.2417332 Z M17.6627907,18.2417332 C17.4922481,18.2417332 17.3585271,18.1923223 17.2616279,18.0935006 C17.1647287,17.9946788 17.1162791,17.8654504 17.1162791,17.7058153 C17.1162791,17.5461802 17.1647287,17.4188521 17.2616279,17.3238312 C17.3585271,17.2288103 17.4922481,17.1812999 17.6627907,17.1812999 L18.1744186,17.1812999 L18.1744186,17.7058153 C18.1744186,17.8578487 18.125969,17.9851767 18.0290698,18.0877993 C17.9321705,18.1904219 17.8100775,18.2417332 17.6627907,18.2417332 Z M12.6976744,19.0171038 C12.8837209,19.0171038 13.0426357,18.9505891 13.1744186,18.8175599 C13.3062016,18.6845306 13.372093,18.5229951 13.372093,18.3329532 C13.372093,18.1505131 13.3062016,17.9946788 13.1744186,17.8654504 C13.0426357,17.736222 12.8837209,17.6716078 12.6976744,17.6716078 L6.06976744,17.6716078 C5.88372093,17.6716078 5.7248062,17.736222 5.59302326,17.8654504 C5.46124031,17.9946788 5.39534884,18.1505131 5.39534884,18.3329532 C5.39534884,18.5229951 5.46124031,18.6845306 5.59302326,18.8175599 C5.7248062,18.9505891 5.88372093,19.0171038 6.06976744,19.0171038 L12.6976744,19.0171038 Z" id="􀣚"></path>
            </g>
        </g>
    </g>
</svg>