<?xml version="1.0" encoding="UTF-8"?>
<svg width="28px" height="31px" viewBox="0 0 28 31" version="1.1" xmlns="http://www.w3.org/2000/svg" xmlns:xlink="http://www.w3.org/1999/xlink">
    <title>编组 39</title>
    <g id="页面-1" stroke="none" stroke-width="1" fill="none" fill-rule="evenodd">
        <g id="黑色_中文" transform="translate(-836.000000, -5849.000000)" stroke="#FFFFFF" stroke-width="2">
            <g id="编组-39" transform="translate(836.000000, 5850.000000)">
                <path d="M8.51531467,4.92612499 L19.9617633,3.63993418 C20.5105941,3.57826429 21.0055027,3.97318626 21.0671726,4.52201708 C21.0755111,4.59622571 21.0755111,4.67113486 21.0671726,4.74534349 L19.7809818,16.1917921 C19.7288596,16.6556533 19.3627601,17.0217528 18.8988989,17.073875 L7.45245027,18.3600658 C6.90361945,18.4217357 6.40871084,18.0268137 6.34704096,17.4779829 C6.33870244,17.4037743 6.33870244,17.3288651 6.34704096,17.2546565 L7.63323177,5.80820789 C7.68535396,5.3443467 8.05145348,4.97824718 8.51531467,4.92612499 Z" id="矩形" transform="translate(13.707107, 11.000000) rotate(-315.000000) translate(-13.707107, -11.000000) "></path>
                <path d="M15.6742028,11.1217099 L19.9617633,10.6399342 C20.5105941,10.5782643 21.0055027,10.9731863 21.0671726,11.5220171 C21.0755111,11.5962257 21.0755111,11.6711349 21.0671726,11.7453435 L19.7809818,23.1917921 C19.7288596,23.6556533 19.3627601,24.0217528 18.8988989,24.073875 L7.45245027,25.3600658 C6.90361945,25.4217357 6.40871084,25.0268137 6.34704096,24.4779829 C6.33870244,24.4037743 6.33870244,24.3288651 6.34704096,24.2546565 L6.54190797,22.5204385 L6.54190797,22.5204385 L6.79036397,20.3093056" id="矩形备份-8" transform="translate(13.707107, 18.000000) rotate(-315.000000) translate(-13.707107, -18.000000) "></path>
            </g>
        </g>
    </g>
</svg>