<?xml version="1.0" encoding="UTF-8"?>
<svg width="28px" height="28px" viewBox="0 0 28 28" version="1.1" xmlns="http://www.w3.org/2000/svg" xmlns:xlink="http://www.w3.org/1999/xlink">
    <title>编组 18</title>
    <g id="页面-1" stroke="none" stroke-width="1" fill="none" fill-rule="evenodd">
        <g id="黑色_中文" transform="translate(-836.000000, -5977.000000)" fill="#FFFFFF" fill-rule="nonzero">
            <g id="编组-18" transform="translate(836.000000, 5977.000000)">
                <rect id="矩形" fill-opacity="0.01" x="0" y="0" width="28" height="28"></rect>
                <path d="M24.4474124,23 C25.6238175,23 26.5100167,22.7005948 27.10601,22.1017845 C27.7020033,21.5029742 28,20.61269 28,19.4309319 L28,8.56906808 C28,7.38730998 27.7020033,6.49702578 27.10601,5.89821547 C26.5100167,5.29940516 25.6238175,5 24.4474124,5 L3.55258765,5 C2.37618253,5 1.48998331,5.29940516 0.893989983,5.89821547 C0.297996661,6.49702578 0,7.38730998 0,8.56906808 L0,19.4309319 C0,20.61269 0.297996661,21.5029742 0.893989983,22.1017845 C1.48998331,22.7005948 2.37618253,23 3.55258765,23 L24.4474124,23 Z M24.3539232,20.989425 L3.63439065,20.989425 C3.10461881,20.989425 2.69949917,20.8446794 2.41903172,20.5551884 C2.13856427,20.2656973 1.99833055,19.8433576 1.99833055,19.2881692 L1.99833055,8.72372769 C1.99833055,8.16060806 2.13856427,7.73628553 2.41903172,7.45076008 C2.69949917,7.16523463 3.10461881,7.02247191 3.63439065,7.02247191 L24.3539232,7.02247191 C24.8914858,7.02247191 25.3005008,7.16523463 25.5809683,7.45076008 C25.8614357,7.73628553 26.0016694,8.16060806 26.0016694,8.72372769 L26.0016694,19.2881692 C26.0016694,19.8433576 25.8614357,20.2656973 25.5809683,20.5551884 C25.3005008,20.8446794 24.8914858,20.989425 24.3539232,20.989425 Z M5.67946578,11.4243225 C6.02225932,11.4243225 6.19365609,11.2538004 6.19365609,10.9127561 L6.19365609,9.87772637 C6.19365609,9.53668209 6.02225932,9.36615995 5.67946578,9.36615995 L4.67445743,9.36615995 C4.33166388,9.36615995 4.16026711,9.53668209 4.16026711,9.87772637 L4.16026711,10.9127561 C4.16026711,11.2538004 4.33166388,11.4243225 4.67445743,11.4243225 L5.67946578,11.4243225 Z M9.20868114,11.4243225 C9.54368392,11.4243225 9.71118531,11.2538004 9.71118531,10.9127561 L9.71118531,9.87772637 C9.71118531,9.53668209 9.54368392,9.36615995 9.20868114,9.36615995 L8.19198664,9.36615995 C7.85698386,9.36615995 7.68948247,9.53668209 7.68948247,9.87772637 L7.68948247,10.9127561 C7.68948247,11.2538004 7.85698386,11.4243225 8.19198664,11.4243225 L9.20868114,11.4243225 Z M12.7262104,11.4243225 C13.0612131,11.4243225 13.2287145,11.2538004 13.2287145,10.9127561 L13.2287145,9.87772637 C13.2287145,9.53668209 13.0612131,9.36615995 12.7262104,9.36615995 L11.7095159,9.36615995 C11.3745131,9.36615995 11.2070117,9.53668209 11.2070117,9.87772637 L11.2070117,10.9127561 C11.2070117,11.2538004 11.3745131,11.4243225 11.7095159,11.4243225 L12.7262104,11.4243225 Z M16.2437396,11.4243225 C16.5787423,11.4243225 16.7462437,11.2538004 16.7462437,10.9127561 L16.7462437,9.87772637 C16.7462437,9.53668209 16.5787423,9.36615995 16.2437396,9.36615995 L15.2387312,9.36615995 C14.8959377,9.36615995 14.7245409,9.53668209 14.7245409,9.87772637 L14.7245409,10.9127561 C14.7245409,11.2538004 14.8959377,11.4243225 15.2387312,11.4243225 L16.2437396,11.4243225 Z M19.7729549,11.4243225 C20.1157485,11.4243225 20.2871452,11.2538004 20.2871452,10.9127561 L20.2871452,9.87772637 C20.2871452,9.53668209 20.1157485,9.36615995 19.7729549,9.36615995 L18.7796327,9.36615995 C18.4290484,9.36615995 18.2537563,9.53668209 18.2537563,9.87772637 L18.2537563,10.9127561 C18.2537563,11.2538004 18.4290484,11.4243225 18.7796327,11.4243225 L19.7729549,11.4243225 Z M23.3021703,11.4243225 C23.6371731,11.4243225 23.8046745,11.2538004 23.8046745,10.9127561 L23.8046745,9.87772637 C23.8046745,9.53668209 23.6371731,9.36615995 23.3021703,9.36615995 L22.2854758,9.36615995 C21.950473,9.36615995 21.7829716,9.53668209 21.7829716,9.87772637 L21.7829716,10.9127561 C21.7829716,11.2538004 21.950473,11.4243225 22.2854758,11.4243225 L23.3021703,11.4243225 Z M5.67946578,15.0171844 C6.02225932,15.0171844 6.19365609,14.8466623 6.19365609,14.505618 L6.19365609,13.4705882 C6.19365609,13.129544 6.02225932,12.9590218 5.67946578,12.9590218 L4.67445743,12.9590218 C4.33166388,12.9590218 4.16026711,13.129544 4.16026711,13.4705882 L4.16026711,14.505618 C4.16026711,14.8466623 4.33166388,15.0171844 4.67445743,15.0171844 L5.67946578,15.0171844 Z M9.20868114,15.0171844 C9.54368392,15.0171844 9.71118531,14.8466623 9.71118531,14.505618 L9.71118531,13.4705882 C9.71118531,13.129544 9.54368392,12.9590218 9.20868114,12.9590218 L8.19198664,12.9590218 C7.85698386,12.9590218 7.68948247,13.129544 7.68948247,13.4705882 L7.68948247,14.505618 C7.68948247,14.8466623 7.85698386,15.0171844 8.19198664,15.0171844 L9.20868114,15.0171844 Z M12.7262104,15.0171844 C13.0612131,15.0171844 13.2287145,14.8466623 13.2287145,14.505618 L13.2287145,13.4705882 C13.2287145,13.129544 13.0612131,12.9590218 12.7262104,12.9590218 L11.7095159,12.9590218 C11.3745131,12.9590218 11.2070117,13.129544 11.2070117,13.4705882 L11.2070117,14.505618 C11.2070117,14.8466623 11.3745131,15.0171844 11.7095159,15.0171844 L12.7262104,15.0171844 Z M16.2437396,15.0171844 C16.5787423,15.0171844 16.7462437,14.8466623 16.7462437,14.505618 L16.7462437,13.4705882 C16.7462437,13.129544 16.5787423,12.9590218 16.2437396,12.9590218 L15.2387312,12.9590218 C14.8959377,12.9590218 14.7245409,13.129544 14.7245409,13.4705882 L14.7245409,14.505618 C14.7245409,14.8466623 14.8959377,15.0171844 15.2387312,15.0171844 L16.2437396,15.0171844 Z M19.7729549,15.0171844 C20.1157485,15.0171844 20.2871452,14.8466623 20.2871452,14.505618 L20.2871452,13.4705882 C20.2871452,13.129544 20.1157485,12.9590218 19.7729549,12.9590218 L18.7796327,12.9590218 C18.4290484,12.9590218 18.2537563,13.129544 18.2537563,13.4705882 L18.2537563,14.505618 C18.2537563,14.8466623 18.4290484,15.0171844 18.7796327,15.0171844 L19.7729549,15.0171844 Z M23.3021703,15.0171844 C23.6371731,15.0171844 23.8046745,14.8466623 23.8046745,14.505618 L23.8046745,13.4705882 C23.8046745,13.129544 23.6371731,12.9590218 23.3021703,12.9590218 L22.2854758,12.9590218 C21.950473,12.9590218 21.7829716,13.129544 21.7829716,13.4705882 L21.7829716,14.505618 C21.7829716,14.8466623 21.950473,15.0171844 22.2854758,15.0171844 L23.3021703,15.0171844 Z M5.67946578,18.6338401 C6.02225932,18.6338401 6.19365609,18.4593523 6.19365609,18.1103767 L6.19365609,17.075347 C6.19365609,16.7263714 6.02225932,16.5518837 5.67946578,16.5518837 L4.67445743,16.5518837 C4.33166388,16.5518837 4.16026711,16.7263714 4.16026711,17.075347 L4.16026711,18.1103767 C4.16026711,18.4593523 4.33166388,18.6338401 4.67445743,18.6338401 L5.67946578,18.6338401 Z M19.6677796,18.6338401 C20.08069,18.6338401 20.2871452,18.4236616 20.2871452,18.0033047 L20.2871452,17.182419 C20.2871452,16.7620621 20.08069,16.5518837 19.6677796,16.5518837 L8.28547579,16.5518837 C7.88814691,16.5518837 7.68948247,16.7620621 7.68948247,17.182419 L7.68948247,18.0033047 C7.68948247,18.4236616 7.88814691,18.6338401 8.28547579,18.6338401 L19.6677796,18.6338401 Z M23.3021703,18.6338401 C23.6371731,18.6338401 23.8046745,18.4593523 23.8046745,18.1103767 L23.8046745,17.075347 C23.8046745,16.7263714 23.6371731,16.5518837 23.3021703,16.5518837 L22.2854758,16.5518837 C21.950473,16.5518837 21.7829716,16.7263714 21.7829716,17.075347 L21.7829716,18.1103767 C21.7829716,18.4593523 21.950473,18.6338401 22.2854758,18.6338401 L23.3021703,18.6338401 Z" id="􀇳"></path>
            </g>
        </g>
    </g>
</svg>