<?xml version="1.0" encoding="UTF-8"?>
<svg width="47px" height="18px" viewBox="0 0 47 18" version="1.1" xmlns="http://www.w3.org/2000/svg" xmlns:xlink="http://www.w3.org/1999/xlink">
    <title>编组 41备份</title>
    <g id="页面-1" stroke="none" stroke-width="1" fill="none" fill-rule="evenodd">
        <g id="黑色_中文" transform="translate(-273.000000, -5855.000000)">
            <g id="编组-41备份" transform="translate(273.000000, 5855.000000)">
                <path d="M44.2184447,0 C45.3230142,-2.02906125e-16 46.2184447,0.8954305 46.2184447,2 L46.2184447,16 C46.2184447,17.1045695 45.3230142,18 44.2184447,18 L6.21844469,18 C5.11387519,18 4.21844469,17.1045695 4.21844469,16 L4.218,13.457 L4.1274675,13.5753968 L0.289806223,9.70400625 C-0.0966020744,9.3142018 -0.0966020744,8.6857982 0.289806223,8.29599375 L4.1274675,4.42460318 L4.218,4.542 L4.21844469,2 C4.21844469,0.8954305 5.11387519,2.02906125e-16 6.21844469,0 L44.2184447,0 Z" id="矩形-3" fill="#007AFF"></path>
                <text id="新功能" font-family="PingFangSC-Medium, PingFang SC" font-size="10" font-weight="400" fill="#FFFFFF">
                    <tspan x="10.2184447" y="13">新功能</tspan>
                </text>
            </g>
        </g>
    </g>
</svg>