<?xml version="1.0" encoding="UTF-8"?>
<svg width="28px" height="28px" viewBox="0 0 28 28" version="1.1" xmlns="http://www.w3.org/2000/svg" xmlns:xlink="http://www.w3.org/1999/xlink">
    <title>编组 16</title>
    <g id="页面-1" stroke="none" stroke-width="1" fill="none" fill-rule="evenodd">
        <g id="黑色_中文" transform="translate(-493.000000, -6103.000000)" fill-rule="nonzero">
            <g id="编组-16" transform="translate(493.000000, 6103.000000)">
                <rect id="矩形" x="0" y="0" width="28" height="28"></rect>
                <path d="M23.9603433,26 C24.6534478,26 25,25.7194006 25,25.1582017 C25,24.6151061 24.6534478,24.3435583 23.9603433,24.3435583 L22.1352738,24.3435583 L22.1352738,2.65644172 L23.9603433,2.65644172 C24.6534478,2.65644172 25,2.3758423 25,1.81464347 C25,1.27154782 24.6534478,1 23.9603433,1 L18.2878584,1 C17.594754,1 17.2482018,1.27154782 17.2482018,1.81464347 C17.2482018,2.3758423 17.594754,2.65644172 18.2878584,2.65644172 L20.1271698,2.65644172 L20.1271698,24.3435583 L18.2878584,24.3435583 C17.594754,24.3435583 17.2482018,24.6151061 17.2482018,25.1582017 C17.2482018,25.7194006 17.594754,26 18.2878584,26 L23.9603433,26 Z M11.345737,3.96188273 C11.867939,3.96188273 12.2975688,4.07729056 12.6346265,4.30810621 C12.9716841,4.53892185 13.2256641,4.88967113 13.3965666,5.36035402 L13.3965666,5.36035402 L15.963,11.907 L15.963,19.64 L15.2195262,17.6750478 L7.42922221,17.6750478 L5.83413254,21.9247712 C5.69171382,22.3320929 5.50419584,22.6217439 5.27157859,22.7937242 C5.03896135,22.9657045 4.72326652,23.0516947 4.3244941,23.0516947 C3.9162271,23.0516947 3.59341134,22.9430755 3.3560468,22.7258373 C3.11868227,22.508599 3,22.2144222 3,21.8433068 C3,21.5808106 3.0522202,21.3183144 3.15666059,21.0558182 L3.15666059,21.0558182 L9.30914932,5.36035402 C9.66044883,4.42803983 10.3393114,3.96188273 11.345737,3.96188273 Z M11.3884626,7.01679574 L11.3030114,7.01679574 L8.16979956,15.4755104 L14.5359164,15.4755104 L11.3884626,7.01679574 Z" id="􀅫" fill="#FFFFFF"></path>
            </g>
        </g>
    </g>
</svg>