<?xml version="1.0" encoding="UTF-8"?>
<svg width="24px" height="24px" viewBox="0 0 24 24" version="1.1" xmlns="http://www.w3.org/2000/svg" xmlns:xlink="http://www.w3.org/1999/xlink">
    <title>􀃤</title>
    <g id="页面-1" stroke="none" stroke-width="1" fill="none" fill-rule="evenodd">
        <g id="黑色_中文" transform="translate(-838.000000, -6105.000000)" fill="#FFFFFF" fill-rule="nonzero">
            <g id="编组-42" transform="translate(150.000000, 5850.000000)">
                <path d="M707.842735,279 C709.219373,279 710.25641,278.655644 710.953846,277.966933 C711.651282,277.278221 712,276.254276 712,274.895097 L712,259.118586 C712,257.759407 711.651282,256.733181 710.953846,256.039909 C710.25641,255.346636 709.219373,255 707.842735,255 L692.157265,255 C690.789744,255 689.754986,255.344356 689.052991,256.033067 C688.350997,256.721779 688,257.750285 688,259.118586 L688,274.895097 C688,276.263398 688.350997,277.289624 689.052991,277.973774 C689.754986,278.657925 690.789744,279 692.157265,279 L707.842735,279 Z M707.747009,276.687571 L692.252991,276.687571 C691.633048,276.687571 691.158974,276.523375 690.830769,276.194983 C690.502564,275.866591 690.338462,275.378563 690.338462,274.730901 L690.338462,259.282782 C690.338462,258.63512 690.502564,258.147092 690.830769,257.8187 C691.158974,257.490308 691.633048,257.326112 692.252991,257.326112 L707.747009,257.326112 C708.357835,257.326112 708.831909,257.490308 709.169231,257.8187 C709.506553,258.147092 709.675214,258.63512 709.675214,259.282782 L709.675214,274.730901 C709.675214,275.378563 709.506553,275.866591 709.169231,276.194983 C708.831909,276.523375 708.357835,276.687571 707.747009,276.687571 Z M704.765812,265.659065 C705.121368,265.659065 705.410826,265.572406 705.634188,265.399088 C705.85755,265.22577 705.969231,264.965792 705.969231,264.619156 C705.969231,264.27252 705.862108,264.007982 705.647863,263.825542 C705.433618,263.643101 705.139601,263.551881 704.765812,263.551881 L695.234188,263.551881 C694.869516,263.551881 694.580057,263.643101 694.365812,263.825542 C694.151567,264.007982 694.044444,264.27252 694.044444,264.619156 C694.044444,264.965792 694.153846,265.22577 694.37265,265.399088 C694.591453,265.572406 694.878632,265.659065 695.234188,265.659065 L704.765812,265.659065 Z M704.765812,270.448119 C705.121368,270.448119 705.410826,270.36146 705.634188,270.188141 C705.85755,270.014823 705.969231,269.754846 705.969231,269.40821 C705.969231,269.061574 705.862108,268.799316 705.647863,268.621437 C705.433618,268.443558 705.139601,268.354618 704.765812,268.354618 L695.234188,268.354618 C694.869516,268.354618 694.580057,268.443558 694.365812,268.621437 C694.151567,268.799316 694.044444,269.061574 694.044444,269.40821 C694.044444,269.754846 694.153846,270.014823 694.37265,270.188141 C694.591453,270.36146 694.878632,270.448119 695.234188,270.448119 L704.765812,270.448119 Z" id="􀃤"></path>
            </g>
        </g>
    </g>
</svg>