<?xml version="1.0" encoding="UTF-8"?>
<svg width="28px" height="28px" viewBox="0 0 28 28" version="1.1" xmlns="http://www.w3.org/2000/svg" xmlns:xlink="http://www.w3.org/1999/xlink">
    <title>编组 13</title>
    <defs>
        <rect id="path-1" x="0" y="0" width="28" height="28"></rect>
    </defs>
    <g id="页面-1" stroke="none" stroke-width="1" fill="none" fill-rule="evenodd">
        <g id="黑色_中文" transform="translate(-493.000000, -5850.000000)">
            <g id="编组-13" transform="translate(493.000000, 5850.000000)">
                <mask id="mask-2" fill="white">
                    <use xlink:href="#path-1"></use>
                </mask>
                <g id="矩形" opacity="0.100000001" fill-rule="nonzero"></g>
                <path d="M25.5385892,11.1794502 C25.8369752,11.477799 25.9906265,11.8032462 25.999543,12.1557919 C26.0084595,12.5083376 25.8869042,12.8106083 25.6348772,13.0626038 C25.3599387,13.3375081 24.9817075,13.5034054 24.5001837,13.5602959 C24.1791747,13.6058659 23.7836052,13.616975 23.3134753,13.5936232 C22.8433455,13.5702714 22.330192,13.5182193 21.774015,13.437467 C21.4032304,13.3836321 21.0286145,13.3196029 20.6501675,13.2453796 L20.0796235,13.1263988 L16.5115327,17.2218925 L16.6502331,17.5547583 C16.9562228,18.3396446 17.1525653,19.121208 17.2392604,19.8994484 C17.354854,20.9371022 17.2826248,21.9015001 17.0225728,22.7926422 C16.7625208,23.6837842 16.3289168,24.4328954 15.7217609,25.0399756 C15.3666319,25.3950603 14.9683428,25.5695381 14.5268936,25.563409 C14.1406255,25.5580461 13.7805674,25.4122648 13.4467191,25.1260653 L13.305246,24.9948114 L8.92312673,20.6144758 L5.10936314,24.428544 C4.80578515,24.7320841 4.48926789,24.9911871 4.15981135,25.205853 C3.83035481,25.4205189 3.51519222,25.5922053 3.21432359,25.720912 C2.91345495,25.8496188 2.65697743,25.93394 2.44489103,25.9738757 C2.23280463,26.0138113 2.10093956,26.0079605 2.04929582,25.9563232 C1.99191389,25.8989484 1.98462778,25.7656654 2.02743748,25.5564742 C2.07024718,25.347283 2.15744801,25.0937062 2.28903995,24.7957438 C2.42063189,24.4977814 2.59233966,24.1826582 2.80416324,23.850374 C2.96303092,23.6011608 3.14770454,23.360032 3.35818407,23.1269874 L3.57726559,22.8966375 L7.39098327,19.0825234 L3.01092757,14.7017769 C2.63794502,14.3288409 2.44838883,13.9216758 2.44225898,13.4802816 C2.43612914,13.0388875 2.6106287,12.6406481 2.96575766,12.2855634 C3.57291363,11.6784832 4.32355277,11.2463676 5.21767508,10.9892168 C6.11179738,10.732066 7.07631562,10.6598458 8.11122979,10.7725562 C8.75805115,10.8430002 9.40718042,10.9895786 10.0586176,11.2122915 L10.4497569,11.3550554 L10.785456,11.4935978 L14.8808206,7.92824431 C14.7541784,7.35489848 14.650476,6.79017174 14.5697136,6.23406411 C14.4889512,5.67795647 14.4368926,5.16486703 14.4135379,4.69479579 C14.3901832,4.22472455 14.4012937,3.82920445 14.4468694,3.50823549 C14.4980287,3.02103426 14.6610777,2.63998151 14.9360162,2.36507725 C15.1880432,2.11308168 15.4903516,1.99154158 15.8429412,2.00045696 C16.145161,2.00809871 16.4274691,2.12206295 16.6898658,2.34234968 L16.8194048,2.46135326 L25.5385892,11.1794502 Z M12.9179604,15.0890141 C12.1834717,14.354617 11.4261977,13.7835706 10.6461384,13.3758747 C9.86607913,12.9681789 9.10334779,12.7038067 8.3579444,12.582758 C7.61254101,12.4617094 6.92887472,12.4596618 6.30694555,12.5766154 C5.68501637,12.693569 5.16780149,12.9066331 4.75530091,13.2158076 C4.54650546,13.3735772 4.4985162,13.5292268 4.61133314,13.6827562 L4.66117728,13.7402303 L14.2583052,23.3361613 C14.4361892,23.5140231 14.6138877,23.4855212 14.7914006,23.2506556 C15.1006137,22.8382064 15.3137044,22.3210561 15.4306725,21.6992045 C15.5476407,21.0773529 15.5441584,20.3923375 15.4202255,19.6441583 C15.2962927,18.8959792 15.0304529,18.1319086 14.6227062,17.3519466 C14.2149596,16.5719846 13.646711,15.8176738 12.9179604,15.0890141 Z M23.3545329,11.4354416 L16.5633814,4.64513711 C16.5232141,4.60497477 16.4759023,4.58916837 16.4214462,4.59771791 C16.36699,4.60626744 16.3283319,4.65065818 16.3054719,4.73089012 C16.2989434,4.75708914 16.2948815,4.79393612 16.2932862,4.84143105 L16.2959001,5.01585971 L16.2959001,5.01585971 L16.3133134,5.2541761 C16.3174489,5.29921947 16.3222011,5.34692484 16.3275699,5.39729219 C16.3651516,5.74986365 16.4400728,6.18558732 16.5523334,6.70446318 C16.6645941,7.22333905 16.8155798,7.7723444 17.0052906,8.35147923 C17.0328916,8.44322116 17.0127905,8.53125153 16.9449871,8.61557035 L16.8851905,8.67811354 L12.5864299,12.4864951 C13.1409875,12.8702936 13.6708978,13.3161747 14.1809594,13.8261727 C14.5864584,14.2316211 14.9518052,14.6512483 15.2769999,15.0850544 L15.5133675,15.4130675 L19.3296607,11.1222789 C19.4270142,11.0019877 19.5359059,10.9619593 19.6563358,11.0021938 C20.2355429,11.1918809 20.7846167,11.3428478 21.3035573,11.4550945 L21.7942988,11.554418 C22.1026605,11.6120184 22.3734234,11.652388 22.6065877,11.6755268 L22.8747737,11.6982292 L22.8747737,11.6982292 L23.0797667,11.7068364 C23.166465,11.7076163 23.2294658,11.7031104 23.2687692,11.6933189 C23.3547494,11.6761992 23.4020147,11.6404147 23.4105653,11.5859654 C23.4162657,11.5496658 23.4098648,11.5152661 23.3913625,11.4827663 L23.3545329,11.4354416 Z" id="形状" fill="#FFFFFF" fill-rule="nonzero" mask="url(#mask-2)"></path>
            </g>
        </g>
    </g>
</svg>