<?xml version="1.0" encoding="UTF-8"?>
<svg width="57px" height="22px" viewBox="0 0 57 22" version="1.1" xmlns="http://www.w3.org/2000/svg" xmlns:xlink="http://www.w3.org/1999/xlink">
    <title>编组 41</title>
    <g id="页面-1" stroke="none" stroke-width="1" fill="none" fill-rule="evenodd">
        <g id="黑色_中文" transform="translate(-326.000000, -4159.000000)">
            <g id="编组-36" transform="translate(108.000000, 4115.000000)">
                <g id="编组-41" transform="translate(218.000000, 44.000000)">
                    <path d="M54.2184447,0 C55.3230142,-2.02906125e-16 56.2184447,0.8954305 56.2184447,2 L56.2184447,20 C56.2184447,21.1045695 55.3230142,22 54.2184447,22 L6.21844469,22 C5.11387519,22 4.21844469,21.1045695 4.21844469,20 L4.218,15.457 L4.1274675,15.5753968 L0.289806223,11.7040062 C-0.0966020744,11.3142018 -0.0966020744,10.6857982 0.289806223,10.2959938 L4.1274675,6.42460318 L4.218,6.542 L4.21844469,2 C4.21844469,0.8954305 5.11387519,2.02906125e-16 6.21844469,0 L54.2184447,0 Z" id="矩形-3" fill="#797979"></path>
                    <text id="即将推出" font-family="PingFangSC-Medium, PingFang SC" font-size="10" font-weight="400" fill="#FFFFFF">
                        <tspan x="10.2184447" y="15">即将推出</tspan>
                    </text>
                </g>
            </g>
        </g>
    </g>
</svg>