<?xml version="1.0" standalone="no"?><!DOCTYPE svg PUBLIC "-//W3C//DTD SVG 1.1//EN" "http://www.w3.org/Graphics/SVG/1.1/DTD/svg11.dtd"><svg t="1691741622844" class="icon" viewBox="0 0 1024 1024" version="1.1" xmlns="http://www.w3.org/2000/svg" p-id="1568" xmlns:xlink="http://www.w3.org/1999/xlink" width="200" height="200"><path d="M597.333333 85.333333H256a85.333333 85.333333 0 0 0-85.333333 85.333334v682.666666a85.333333 85.333333 0 0 0 85.333333 85.333334h512a85.333333 85.333333 0 0 0 85.333333-85.333334V341.333333l-256-256m170.666667 768H256V170.666667h298.666667v213.333333h213.333333v469.333333m-230.4-371.2h-85.333333v136.533334h89.6a64 64 0 0 0 51.2-21.333334 72.96 72.96 0 0 0 0-93.866666 73.813333 73.813333 0 0 0-55.466667-21.333334m8.533333 187.733334h-93.866666V810.666667H384v-384h162.133333a128 128 0 0 1 102.4 34.133333 113.066667 113.066667 0 0 1 34.133334 89.6 107.52 107.52 0 0 1-34.133334 89.6 133.973333 133.973333 0 0 1-102.4 29.866667z" fill="#ffffff" p-id="1569"></path></svg>