<?xml version="1.0" encoding="UTF-8"?>
<svg width="44px" height="44px" viewBox="0 0 44 44" version="1.1" xmlns="http://www.w3.org/2000/svg" xmlns:xlink="http://www.w3.org/1999/xlink">
    <title>编组备份 2</title>
    <g id="页面-1" stroke="none" stroke-width="1" fill="none" fill-rule="evenodd">
        <g id="黑色_中文" transform="translate(-1101.000000, -5192.000000)">
            <g id="编组备份-2" transform="translate(1101.000000, 5192.000000)">
                <path d="M15.6681873,-1.53984766e-15 L28.3318127,-2.73820618e-16 C33.7799827,1.59097664e-16 35.7556209,0.567267624 37.7473904,1.63247763 C39.73916,2.69768764 41.3023124,4.26084004 42.3675224,6.25260959 C43.4327324,8.24437914 44,10.2200173 44,15.6681873 L44,28.3318127 C44,33.7799827 43.4327324,35.7556209 42.3675224,37.7473904 C41.3023124,39.73916 39.73916,41.3023124 37.7473904,42.3675224 C35.7556209,43.4327324 33.7799827,44 28.3318127,44 L15.6681873,44 C10.2200173,44 8.24437914,43.4327324 6.25260959,42.3675224 C4.26084004,41.3023124 2.69768764,39.73916 1.63247763,37.7473904 C0.567267624,35.7556209 1.66125376e-15,33.7799827 -2.85915908e-15,28.3318127 L-4.84825125e-16,15.6681873 C2.8169736e-16,10.2200173 0.567267624,8.24437914 1.63247763,6.25260959 C2.69768764,4.26084004 4.26084004,2.69768764 6.25260959,1.63247763 C8.24437914,0.567267624 10.2200173,8.94695835e-16 15.6681873,-1.53984766e-15 Z" id="base" fill="#000000" opacity="0.200000003" transform="translate(22.000000, 22.000000) rotate(-90.000000) translate(-22.000000, -22.000000) "></path>
                <polyline id="路径" stroke="#FFFFFF" stroke-width="2.44444444" stroke-linecap="round" stroke-linejoin="round" points="18.3333333 30.5555556 26.8888889 22 18.3333333 13.4444444"></polyline>
            </g>
        </g>
    </g>
</svg>