<?xml version="1.0" standalone="no"?><!DOCTYPE svg PUBLIC "-//W3C//DTD SVG 1.1//EN" "http://www.w3.org/Graphics/SVG/1.1/DTD/svg11.dtd"><svg t="1691741712834" class="icon" viewBox="0 0 1024 1024" version="1.1" xmlns="http://www.w3.org/2000/svg" p-id="2645" xmlns:xlink="http://www.w3.org/1999/xlink" width="200" height="200"><path d="M521.563 53v250.814l0.013 1.56c0.833 51.385 42.756 92.783 94.35 92.783H876v407.285C876 875.338 819.326 932 749.415 932h-494.83C184.674 932 128 875.338 128 805.442V179.558C128 109.662 184.674 53 254.585 53h266.978z m143.052 643.143l-382.056 1.15-0.706 0.01c-16.197 0.425-29.172 13.71-29.124 29.994 0.05 16.355 13.219 29.606 29.516 29.82l0.495 0.003 382.055-1.15 0.706-0.01c16.197-0.424 29.173-13.71 29.124-29.994-0.05-16.52-13.486-29.873-30.01-29.823zM488.449 484.446H282.203l-0.706 0.009c-16.198 0.375-29.214 13.62-29.214 29.905 0 16.356 13.13 29.645 29.425 29.91l0.495 0.004H488.45l0.706-0.009c16.198-0.375 29.214-13.62 29.214-29.905 0-16.52-13.396-29.914-29.92-29.914z m71.703-422.552l0.574 0.535 299.147 286.514a30.11 30.11 0 0 1 3.384 3.841 46.18 46.18 0 0 1 6.458 8.556H615.926l-0.951-0.007c-31.34-0.508-56.587-26.066-56.587-57.519V60.408c0.602 0.469 1.19 0.964 1.764 1.486z" fill="#ffffff" p-id="2646"></path></svg>